<?xml version="1.0" encoding="UTF-8" standalone="no"?>
<svg
   xmlns:dc="http://purl.org/dc/elements/1.1/"
   xmlns:cc="http://creativecommons.org/ns#"
   xmlns:rdf="http://www.w3.org/1999/02/22-rdf-syntax-ns#"
   xmlns:svg="http://www.w3.org/2000/svg"
   xmlns="http://www.w3.org/2000/svg"
   xmlns:sodipodi="http://sodipodi.sourceforge.net/DTD/sodipodi-0.dtd"
   xmlns:inkscape="http://www.inkscape.org/namespaces/inkscape"
   viewBox="0 0 200 40"
   style="background-color:#ffffff00"
   width="200"
   height="40"
   version="1.1"
   id="svg18"
   sodipodi:docname="logo_caixabank--gray.svg"
   inkscape:version="0.92.3 (2405546, 2018-03-11)">
  <metadata
     id="metadata24">
    <rdf:RDF>
      <cc:Work
         rdf:about="">
        <dc:format>image/svg+xml</dc:format>
        <dc:type
           rdf:resource="http://purl.org/dc/dcmitype/StillImage" />
        <dc:title></dc:title>
      </cc:Work>
    </rdf:RDF>
  </metadata>
  <defs
     id="defs22" />
  <sodipodi:namedview
     pagecolor="#ffffff"
     bordercolor="#666666"
     borderopacity="1"
     objecttolerance="10"
     gridtolerance="10"
     guidetolerance="10"
     inkscape:pageopacity="0"
     inkscape:pageshadow="2"
     inkscape:window-width="1920"
     inkscape:window-height="1015"
     id="namedview20"
     showgrid="false"
     inkscape:zoom="0.68589358"
     inkscape:cx="349.07431"
     inkscape:cy="145.87226"
     inkscape:window-x="0"
     inkscape:window-y="0"
     inkscape:window-maximized="1"
     inkscape:current-layer="svg18" />
  <path
     d="M10.38 28.29c.377 0 .65.275 1.01.21.51.19.445.8.976.947.402.79.653 1.655.866 2.51-.147.5.28.796.128 1.256l.152.087c.023.48-.044 1.023-.233 1.485.08.88-.365 1.613-.746 2.367-.27.167-.4.648-.78.565-.682.21-.743 1.21-1.57 1.092-.526.393-1.25.16-1.886.184-.357-.185-.867-.143-1.118-.46-.64-.25-1.208-.713-1.756-1.174-.215-.462-.7-.672-.762-1.192.187-.63-.216-1.198-.048-1.822L4.492 33.3l.398-1.804c.68-.36.485-1.17 1.166-1.423.424-.96 1.436-1.176 2.222-1.658.3-.058.656.108.89-.165.427-.064.83.38 1.21.04z"
     fill="#adadad"
     id="path2" />
  <path
     d="M13.512 20.65c.42.29.403.877.782 1.172l.19 1.3-.95 1.38c-1.21.625-3.008.9-4.132-.107-.636-.565-.802-1.383-.636-2.2l.447-1.19c.25-.17.59-.212.762-.504.592-.375 1.35-.293 2.03-.44.51.167 1.272-.103 1.507.59z"
     fill="#adadad"
     id="path4"
     style="fill:#999999" />
  <path
     d="M10.38 28.29c.377 0 .65.275 1.01.21.51.19.445.8.976.947.402.79.653 1.655.866 2.51-.147.5.28.796.128 1.256l.152.087c.023.48-.044 1.023-.233 1.485.08.88-.365 1.613-.746 2.367-.27.167-.4.648-.78.565-.682.21-.743 1.21-1.57 1.092-.526.393-1.25.16-1.886.184-.357-.185-.867-.143-1.118-.46-.64-.25-1.208-.713-1.756-1.174-.215-.462-.7-.672-.762-1.192.187-.63-.216-1.198-.048-1.822L4.492 33.3l.398-1.804c.68-.36.485-1.17 1.166-1.423.424-.96 1.436-1.176 2.222-1.658.3-.058.656.108.89-.165.427-.064.83.38 1.21.04z"
     fill="#adadad"
     id="path6" />
  <path
     d="M44.917.395c-.17 2.955-2.626 4.944-3.922 7.436-.545 1.486-1.862 2.366-2.794 3.71-.847.856-1.673 1.8-2.37 2.762.13.69.867.88 1.29 1.382.954.565 1.058 1.63 1.887 2.28.485.002.485.716 1.018.63 1.122 1.196 2.033 2.43 2.96 3.73.15.46.385.92.786 1.254.743 1.07 1.357 2.2 2.118 3.29.11 1.214 1.144 2.03 1.46 3.164.47.606.657 1.318 1.084 1.926.654 1.424 1.102 2.908 1.882 4.274.148.312-.042.626-.21.856-.298.23-.527-.19-.87-.128-1.73-.626-3.39-1.527-4.996-2.49-1.654-1.32-3.475-2.26-5.105-3.643-.636-.168-.89-.9-1.477-1.196-1.57-.962-2.823-2.342-4.41-3.243-.717-.545-1.44-1.066-2.16-1.632-.55-.067-.737-.694-1.27-.88-1.188-.713-2.263-1.7-3.47-2.37-.11.17 0 .42-.11.587-.803.777-.59 1.97-1.168 2.83-.017 1.232-.887 2.138-1.243 3.222-.997 1.76-1.868 3.564-2.903 5.3-1.38 1.803-2.117 3.98-4.065 5.424-.424.524-.91.795-1.44 1.132-.234-.064-.572-.025-.637-.314-.232-.44.065-1.112-.252-1.512.27-.604.102-1.294.232-1.965l-.105-.292c.02-.923.486-1.7.294-2.642.254-.585.36-1.235.42-1.884.303-.796.558-1.656.64-2.515.273-.502.38-1.15.316-1.738.21-.54.255-1.195.83-1.592.082-.358 0-.71.06-1.087.572-1.72 1.272-3.375 1.714-5.13 0-.127-.125-.167-.21-.192-1.248-.062-2.413.192-3.58-.122-1.908-.024-3.833-.274-5.65-.65-.743-.148-1.634-.064-2.31-.482-.446.017-.957.104-1.375-.126-.87-.422-1.93-.358-2.8-.818-.655.088-1.12-.336-1.716-.397-.572.043-.888-.44-1.29-.755V15.6c1.058-1.425 2.753-1.82 4.278-2.366 1.504-.462 3.178-.502 4.744-.82.995-.165 2.073.11 3.07-.063 1.8.046 3.536.338 5.316.382.594.083 1.142.356 1.735.332l-.02-.25-1.676-2.26c-.628-1.467-1.794-2.7-2.202-4.253-.378-.46-.02-1.148-.318-1.65-.02-.233.173-.4.277-.59.363-.145.763.107 1.122-.124 1.082.25 2.076.627 3.155.835 1.124.444 2.27.884 3.264 1.617 1.248.876 2.755 1.444 3.724 2.804.26.232.656.274.993.186.3-.037.366-.395.643-.498 1.31-.818 2.792-1.276 4.088-2.178.522-.526 1.376-.588 1.69-1.298.405-.19.767-.44 1.19-.546.743-.52 1.48-1.088 2.283-1.506.427-.045.764-.276 1.104-.502 1.312-.713 2.69-1.3 3.938-2.116C42.67 0 43.495.166 44.087 0c.297.063.7.018.83.395z"
     fill="#adadad"
     id="path8"
     style="fill:#999999" />
  <path
     d="M59.952 35.053H200v-.54H59.952v.54z"
     id="path10"
     style="fill:#999999" />
  <path
     d="M59.952 35.57H200v-.538H59.952v.537zM162.98 26.366c-.544.335-1.218.57-2.272.57-1.42 0-2.64-1.173-2.64-2.713 0-2.144 1.624-2.948 3.183-2.948.61 0 1.252.097 1.626.165l.105 4.926zm-5.9-8.177c.85-1.24 1.698-1.775 3.358-1.775 2.303 0 2.438 2.008 2.438 3.818-.474 0-1.05-.1-1.593-.1-3.083 0-6.506 1.376-6.506 4.926 0 2.48 2.27 3.888 4.576 3.888 1.49 0 2.575-.806 3.728-1.64.406.834 1.423 1.472 2.717 1.64l2.536-2.01-.508-.502c-.24.064-.542.134-.713.134-.744 0-1.01-.44-1.01-1.978v-1.174c.032-1.91.128-3.65.128-4.858 0-3.352-2.573-4.158-5.588-4.158-1.594 0-2.948.204-4.374.604v3.183h.813zM81.743 9.713h-1.457C79.21 6.48 75.8 5.208 72.81 5.208c-6.047 0-8.55 4.812-8.55 10.587 0 9.693 7.092 11.34 9.975 11.34 2.82 0 5.352-1.2 6.886-3.607l1.078.448-1.077 3.815c-2.78.518-4.52.79-6.776.79-10.36 0-14.913-6.322-14.913-12.51 0-7.082 5.527-12.307 13.317-12.307 4.512 0 6.25.757 8.718 1.378l.278 4.573zM85.686 18.17v-3.19c1.422-.4 2.78-.604 4.38-.604 3.017 0 5.6.807 5.6 4.163 0 1.21-.103 2.954-.14 4.867v1.175c0 1.546.273 1.983 1.024 1.983.167 0 .47-.067.71-.138l.51.506-2.544 2.015c-1.295-.166-2.312-.807-2.722-1.648-1.15.84-2.24 1.648-3.73 1.648-2.307 0-4.582-1.412-4.582-3.9 0-3.554 3.43-4.928 6.518-4.928.54 0 1.118.095 1.59.095 0-1.81-.135-3.823-2.44-3.823-1.666 0-2.513.536-3.363 1.777h-.81zm6.615 3.256c-.37-.07-1.016-.167-1.63-.167-1.557-.002-3.188.807-3.188 2.952 0 1.546 1.228 2.72 2.65 2.72 1.05 0 1.73-.235 2.278-.568l-.11-4.938zM103.295 14.413c0 1.415.137 4.368.137 7.12v4.903c0 1.14.546 1.308 1.325 1.512v.672c-1.018 0-2.034-.104-3.06-.104-.91 0-1.827.067-2.747.104v-.672c.817-.204 1.19-.372 1.19-1.512v-4.163c0-2.42-.2-3.764-.476-4.467-.27-.67-.61-.903-1.422-1.042v-.67c1.56-.367 3.362-1.006 4.376-1.68h.677zm-1.66-5.67c.983 0 1.865.704 1.865 1.714 0 1.004-.882 1.708-1.865 1.708-.985 0-1.868-.704-1.868-1.708 0-1.01.883-1.715 1.868-1.715zM106.45 27.945c1.083-.167 1.796-1.005 2.242-1.576l3.29-4.164-3.9-5.238c-.65-.84-.89-1.073-1.873-1.513v-.67c1.02.033 2.073.103 3.09.103 1.02 0 2.04-.07 3.053-.103v.67c-.406.2-.71.272-.71.774 0 .232.1.67.404 1.073l1.87 2.517 1.66-2.184c.34-.467.514-.87.514-1.106 0-.636-.41-.876-.95-1.075v-.67c.913.033 1.795.103 2.713.103.882 0 1.802-.07 2.686-.103v.67c-1.33.304-2.04 1.108-2.785 2.05l-2.89 3.627 3.67 5.035c.507.67 1.285 1.51 2.135 1.778v.673c-1.016-.035-2.004-.102-3.018-.102-1.022 0-2.007.067-3.023.102v-.673c.372-.034.678-.4.678-.74 0-.197-.27-.735-.545-1.14l-1.832-2.584-1.834 2.45c-.208.304-.47.943-.47 1.245 0 .532.262.705.713.77v.673c-.886-.035-1.806-.102-2.688-.102-.74 0-1.46.067-2.202.102v-.673zM123.076 18.17v-3.19c1.426-.4 2.78-.604 4.38-.604 3.022 0 5.603.807 5.603 4.163 0 1.21-.106 2.954-.14 4.867v1.175c0 1.546.273 1.983 1.018 1.983.17 0 .474-.067.714-.138l.51.506-2.552 2.015c-1.283-.166-2.3-.807-2.71-1.648-1.155.84-2.242 1.648-3.73 1.648-2.31 0-4.59-1.412-4.59-3.9 0-3.554 3.426-4.928 6.52-4.928.545 0 1.12.095 1.596.095 0-1.81-.133-3.823-2.443-3.823-1.666 0-2.514.536-3.36 1.777h-.817zm6.62 3.256c-.37-.07-1.015-.167-1.628-.167-1.565-.002-3.19.807-3.19 2.952 0 1.546 1.224 2.72 2.645 2.72 1.05 0 1.737-.235 2.28-.568l-.107-4.938zM141.973 7.096c0-.637.404-.67 1.352-.67 3.663 0 5.05 1.945 5.05 4.894 0 2.915-2.034 4.76-5.05 4.76-.44 0-.92-.034-1.52-.068l.168-8.916zm-3.8 18.667c0 1.442-.438 1.944-1.933 2.112v.604h5.83c.475 0 .953.032 1.395.066.474.032.948.063 1.388.063 3.694 0 8.065-1.405 8.065-5.727 0-3.486-2.138-5.264-5.325-6.134v-.068c2.546-.806 4.916-2.65 4.916-5.497 0-4.358-4.546-5.967-8.338-5.967-.813 0-1.59.135-3.115.135-1.356 0-2.744-.135-4.44-.135v.74c.915.134 1.46.433 1.46 1.708 0 3.018.097 7.274.097 11.295v6.803zm3.632-8.31c.706 0 1.248-.035 1.825-.035 3.25 0 5.152 2.28 5.152 5.33 0 2.58-1.728 4.658-4.644 4.658-2.1 0-2.333-.335-2.333-2.144v-7.81zM168.885 16.723c1.018 0 1.49.568 1.49 1.54 0 1.073.172 2.884.172 4.826v3.285c0 1.14-.407 1.27-1.255 1.573v.67c.952 0 1.928-.098 2.88-.098.98 0 1.933.065 2.915.098v-.67c-.912-.1-1.257-.368-1.257-1.573v-2.748c0-2.615.072-4.49.072-5.765 0-1.24 2.165-1.574 2.844-1.574 2.406 0 2.778 2.48 2.778 4.288v5.8c0 1.14-.273 1.373-1.222 1.572v.67c1.09 0 2.138-.098 3.22-.098.852 0 1.663.065 2.51.098v-.67c-.95-.264-1.22-.5-1.22-1.573V19.27c0-2.85-1.322-4.827-4.676-4.827-1.425 0-2.95.84-4.134 1.61.035-.57.035-1.105.065-1.675h-.675c-1.285.8-2.505 1.306-4.507 1.674v.67zM199.984 27.908c-1.014-.3-2.235-1.37-2.673-1.875l-5.12-5.933 2.61-2.715c.81-.838 1.932-1.61 3.15-1.945v-.667c-.844.064-1.692.1-2.54.1-.913 0-1.866-.036-2.78-.1v.667c.308.138.612.54.612.873 0 .37-.17.872-.883 1.575l-2.78 2.715V4.82h-.745c-1.22.904-2.808 1.606-4.508 2.043v.77c.848 0 1.627.805 1.7 2.18.098 1.273.27 3.786.27 5.732V26.4c0 .738-.27 1.34-1.29 1.508v.67c.915-.064 1.797-.1 2.71-.1 1.017 0 2 .1 3.015.1v-.67c-.81-.167-1.15-.566-1.15-1.574V21.74h.068l3.49 3.79c.577.635.983 1.41.983 1.775 0 .335-.24.603-.542.603v.67c1.156 0 2.303-.1 3.455-.1.984 0 1.97.068 2.95.1v-.67z"
     id="path12"
     style="fill:#999999" />
  <path
     d="M59.952 35.57H200v-.538H59.952v.537z"
     id="path14"
     style="fill:#999999" />
  <path
     d="M10.38 28.29c.377 0 .65.275 1.01.21.51.19.445.8.976.947.402.79.653 1.655.866 2.51-.147.5.28.796.128 1.256l.152.087c.023.48-.044 1.023-.233 1.485.08.88-.365 1.613-.746 2.367-.27.167-.4.648-.78.565-.682.21-.743 1.21-1.57 1.092-.526.393-1.25.16-1.886.184-.357-.185-.867-.143-1.118-.46-.64-.25-1.208-.713-1.756-1.174-.215-.462-.7-.672-.762-1.192.187-.63-.216-1.198-.048-1.822L4.492 33.3l.398-1.804c.68-.36.485-1.17 1.166-1.423.424-.96 1.436-1.176 2.222-1.658.3-.058.656.108.89-.165.427-.064.83.38 1.21.04z"
     fill="#adadad"
     id="path16"
     style="fill:#999999" />
</svg>
